<svg width="1024" height="1024" viewBox="0 0 1024 1024" fill="none" xmlns="http://www.w3.org/2000/svg">
  <defs>
    <linearGradient id="bg" x1="0" y1="0" x2="1024" y2="1024" gradientUnits="userSpaceOnUse">
      <stop stop-color="#5ABF92"/>
      <stop offset="1" stop-color="#3C9A71"/>
    </linearGradient>
    <linearGradient id="leaf" x1="320" y1="220" x2="720" y2="800" gradientUnits="userSpaceOnUse">
      <stop stop-color="#FBF8F3"/>
      <stop offset="1" stop-color="#F1EADF"/>
    </linearGradient>
  </defs>
  <rect width="1024" height="1024" fill="url(#bg)"/>
  <path d="M512 216c-172 0-300 120-300 300 0 156 112 292 300 292s300-136 300-292c0-180-128-300-300-300z" fill="url(#leaf)"/>
  <path d="M512 720c0-140 12-256 0-392" stroke="#4FB286" stroke-width="32" stroke-linecap="round"/>
  <path d="M512 460c44-12 88-44 104-96" stroke="#4FB286" stroke-width="32" stroke-linecap="round"/>
  <path d="M512 560c-44-12-88-44-104-96" stroke="#4FB286" stroke-width="32" stroke-linecap="round"/>
  <circle cx="512" cy="356" r="44" fill="#F2856D"/>
</svg>
